<?xml version="1.0" encoding="utf-8"?>
<!-- Generator: Adobe Illustrator 16.0.0, SVG Export Plug-In . SVG Version: 6.00 Build 0)  -->
<!DOCTYPE svg PUBLIC "-//W3C//DTD SVG 1.1//EN" "http://www.w3.org/Graphics/SVG/1.1/DTD/svg11.dtd">
<svg version="1.1" id="All_glyphs" xmlns="http://www.w3.org/2000/svg" xmlns:xlink="http://www.w3.org/1999/xlink" x="0px" y="0px"
	 width="40px" height="35px" viewBox="0 0 40 35" enable-background="new 0 0 40 35" xml:space="preserve">
<path class="menu-icon" fill="#FFFFFF" d="M16.248,28.27c-1.38,2.391-0.45,4.357,1.464,5.462c1.911,1.104,4.081,0.927,5.462-1.463
	c1.38-2.39,10.089-23.722,9.332-24.161C31.747,7.67,17.628,25.879,16.248,28.27z M19.991,13.075c0.874,0,1.729,0.076,2.562,0.217
	c0.876-1.096,1.855-2.305,2.81-3.454c-1.703-0.493-3.503-0.761-5.371-0.761C8.781,9.077,0,18.53,0,30.597
	c0,0.742,0.033,1.485,0.098,2.209c0.097,1.1,1.08,1.909,2.168,1.813c1.1-0.098,1.912-1.069,1.814-2.169
	c-0.055-0.606-0.082-1.229-0.082-1.853C3.998,20.772,11.022,13.075,19.991,13.075z M34.423,15.573
	c-0.558,1.499-1.147,3.027-1.667,4.349c2.032,2.937,3.229,6.624,3.229,10.675c0,0.633-0.029,1.27-0.086,1.89
	c-0.1,1.1,0.711,2.072,1.811,2.172c0.062,0.006,0.122,0.008,0.184,0.008c1.021,0,1.894-0.78,1.988-1.818
	c0.067-0.74,0.103-1.498,0.103-2.252C39.984,24.696,37.88,19.424,34.423,15.573z"/>
</svg>
