<?xml version="1.0" encoding="utf-8"?>
<!-- Generator: Adobe Illustrator 16.0.0, SVG Export Plug-In . SVG Version: 6.00 Build 0)  -->
<!DOCTYPE svg PUBLIC "-//W3C//DTD SVG 1.1//EN" "http://www.w3.org/Graphics/SVG/1.1/DTD/svg11.dtd">
<svg version="1.1" id="All_glyphs" xmlns="http://www.w3.org/2000/svg" xmlns:xlink="http://www.w3.org/1999/xlink" x="0px" y="0px"
	 width="40px" height="35px" viewBox="0 0 40 35" enable-background="new 0 0 40 35" xml:space="preserve">
<g>
	<path class="menu-icon" fill="#FFFFFF" d="M40,35c0,0-0.079-7.531-0.542-8.311c-0.688-1.163-2.291-1.961-5.268-3.198
		c-2.967-1.233-3.914-2.273-3.914-4.5c0-1.338,0.905-0.9,1.304-3.349c0.165-1.016,0.964-0.017,1.118-2.335
		c0-0.924-0.438-1.155-0.438-1.155s0.222-1.367,0.309-2.419c0.107-1.312-0.665-4.699-4.782-4.699c-4.118,0-4.89,3.388-4.782,4.699
		c0.087,1.053,0.309,2.419,0.309,2.419s-0.436,0.23-0.436,1.155c0.152,2.318,0.952,1.319,1.117,2.335
		c0.398,2.448,1.305,2.011,1.305,3.349c0,1.514-0.441,2.48-1.655,3.331c6.481,3.226,7.351,3.883,7.351,6.768V35H40z M20.447,24.61
		c-3.957-1.645-5.221-3.031-5.221-6c0-1.783,1.207-1.201,1.737-4.466c0.22-1.354,1.288-0.022,1.492-3.114
		c0-1.232-0.583-1.539-0.583-1.539s0.296-1.823,0.412-3.227C18.429,4.517,17.399,0,11.909,0C6.418,0,5.388,4.517,5.533,6.266
		c0.115,1.404,0.41,3.227,0.41,3.227s-0.581,0.306-0.581,1.539c0.204,3.092,1.271,1.76,1.491,3.114
		c0.53,3.265,1.737,2.683,1.737,4.466c0,2.969-1.265,4.355-5.221,6C2.166,25.111,0,25.887,0,27.755V35h27.787c0,0,0-4.286,0-5.433
		C27.787,27.864,24.415,26.26,20.447,24.61z"/>
</g>
</svg>
