<?xml version="1.0" encoding="utf-8"?>
<!-- Generator: Adobe Illustrator 16.0.0, SVG Export Plug-In . SVG Version: 6.00 Build 0)  -->
<!DOCTYPE svg PUBLIC "-//W3C//DTD SVG 1.1//EN" "http://www.w3.org/Graphics/SVG/1.1/DTD/svg11.dtd">
<svg version="1.1" id="All_glyphs" xmlns="http://www.w3.org/2000/svg" xmlns:xlink="http://www.w3.org/1999/xlink" x="0px" y="0px"
	 width="40px" height="35px" viewBox="0 0 40 35" enable-background="new 0 0 40 35" xml:space="preserve">
<path fill="#FFFFFF" d="M1.391,20.341l2.749,0.682l2.07-3.249l-3.934-0.975c-0.984-0.245-1.978,0.352-2.222,1.33
	C-0.189,19.107,0.408,20.097,1.391,20.341z M37.27,20.867l-8.999,8.101l-10.582-8.189c-0.202-0.156-0.435-0.268-0.683-0.33
	L15.597,20.1l-2.069,3.25l2.217,0.549l11.49,8.891c0.333,0.257,0.729,0.384,1.125,0.384c0.441,0,0.882-0.158,1.229-0.471
	l10.14-9.128c0.751-0.676,0.81-1.83,0.131-2.578C39.181,20.249,38.021,20.19,37.27,20.867z M17.513,11.97l9.855,6.31
	c0.832,0.532,1.938,0.312,2.5-0.498l10.14-14.604c0.576-0.83,0.367-1.966-0.466-2.54c-0.834-0.574-1.975-0.366-2.551,0.463
	l-9.132,13.153l-9.916-6.348c-0.41-0.263-0.909-0.351-1.387-0.247c-0.477,0.104-0.891,0.394-1.152,0.805L0.286,32.196
	c-0.543,0.852-0.289,1.98,0.565,2.52C1.156,34.908,1.496,35,1.832,35c0.606,0,1.2-0.3,1.55-0.848L17.513,11.97z"/>
</svg>
